<?xml version="1.0" encoding="UTF-8" standalone="no"?>
<svg
   width="24"
   height="24"
   id="svg2"
   version="1.0"
   xmlns="http://www.w3.org/2000/svg"
   xmlns:svg="http://www.w3.org/2000/svg"
   xmlns:rdf="http://www.w3.org/1999/02/22-rdf-syntax-ns#"
   xmlns:cc="http://creativecommons.org/ns#"
   xmlns:dc="http://purl.org/dc/elements/1.1/">
  <defs
     id="defs126">
    <style
       id="style124">.canvas{fill: none; opacity: 0;}.light-defaultgrey{fill: #515151; opacity: 1;}</style>
  </defs>
  <metadata
     id="metadata7">
    <rdf:RDF>
      <cc:Work
         rdf:about="">
        <dc:format>image/svg+xml</dc:format>
        <dc:type
           rdf:resource="http://purl.org/dc/dcmitype/StillImage" />
      </cc:Work>
    </rdf:RDF>
  </metadata>
  <title
     id="title128">IconLightDarkTheme</title>
  <g
     id="Canvas">
    <path
       class="canvas"
       d="M 24,24 H 0 V 0 h 24 z"
       id="path130" />
  </g>
  <g
     id="level-1"
     transform="matrix(1.5,0,0,1.5,1.4999241,0.85947428)">
    <path
       class="light-defaultgrey"
       d="M 8.4,2.316 A 5.644,5.644 0 0 1 9.415,2.794 4.98,4.98 0 0 1 10.46,3.638 6.234,6.234 0 0 1 11.297,4.749 4.835,4.835 0 0 1 11.806,6 6.261,6.261 0 0 1 12,7.423 5.444,5.444 0 0 1 11.81,8.866 5.137,5.137 0 0 1 11.263,10.149 6.132,6.132 0 0 1 10.399,11.273 4.861,4.861 0 0 1 9.323,12.106 5.962,5.962 0 0 1 8,12.658 5.214,5.214 0 0 1 6.567,12.858 5.461,5.461 0 0 1 5.151,12.674 5.225,5.225 0 0 1 3.857,12.133 5.538,5.538 0 0 1 2.923,11.446 Q 3.054,11.416 3.181,11.38 A 7.168,7.168 0 0 0 4.963,10.621 8.2,8.2 0 0 0 6.453,9.472 6.845,6.845 0 0 0 7.63,7.951 7.993,7.993 0 0 0 8.368,6.19 7.221,7.221 0 0 0 8.641,4.207 7.432,7.432 0 0 0 8.4,2.316 M 6.778,1 a 6.349,6.349 0 0 1 0.645,1.549 6.385,6.385 0 0 1 0.218,1.658 6.208,6.208 0 0 1 -0.235,1.709 6.922,6.922 0 0 1 -0.645,1.54 5.78,5.78 0 0 1 -1,1.3 A 7.041,7.041 0 0 1 4.45,9.759 6.078,6.078 0 0 1 2.918,10.412 6.4,6.4 0 0 1 1.209,10.639 0.714,0.714 0 0 0 1.1,10.63 H 1 a 6.8,6.8 0 0 0 1.038,1.348 6.5,6.5 0 0 0 1.315,1.014 6.233,6.233 0 0 0 1.541,0.644 6.4,6.4 0 0 0 1.675,0.218 6.2,6.2 0 0 0 1.708,-0.234 7.025,7.025 0 0 0 1.541,-0.645 5.838,5.838 0 0 0 1.3,-1 7.162,7.162 0 0 0 1.005,-1.306 A 6.174,6.174 0 0 0 12.776,9.136 6.387,6.387 0 0 0 13,7.423 7.279,7.279 0 0 0 12.774,5.748 5.791,5.791 0 0 0 12.154,4.241 7.2,7.2 0 0 0 11.183,2.951 5.934,5.934 0 0 0 9.927,1.938 6.659,6.659 0 0 0 8.436,1.276 6.5,6.5 0 0 0 6.778,1 Z"
       id="path135" />
  </g>
</svg>
