<?xml version="1.0" encoding="UTF-8" standalone="no"?>
<svg
   width="24"
   height="24"
   id="svg2"
   version="1.0"
   xmlns="http://www.w3.org/2000/svg"
   xmlns:svg="http://www.w3.org/2000/svg"
   xmlns:rdf="http://www.w3.org/1999/02/22-rdf-syntax-ns#"
   xmlns:cc="http://creativecommons.org/ns#"
   xmlns:dc="http://purl.org/dc/elements/1.1/">
  <defs
     id="defs4">
    <style
       id="style2">.canvas{fill: none; opacity: 0;}.light-defaultgrey{fill: #8c8c8c; opacity: 1;}</style>
  </defs>
  <metadata
     id="metadata7">
    <rdf:RDF>
      <cc:Work
         rdf:about="">
        <dc:format>image/svg+xml</dc:format>
        <dc:type
           rdf:resource="http://purl.org/dc/dcmitype/StillImage" />
      </cc:Work>
    </rdf:RDF>
  </metadata>
  <title
     id="title6">IconLightBrightness</title>
  <g
     id="Canvas">
    <path
       class="canvas"
       d="M 24,24 H 0 V 0 h 24 z"
       id="path8" />
  </g>
  <g
     id="level-1"
     transform="matrix(1.5,0,0,1.5,0.75,0.75)">
    <path
       id="path13"
       class="light-defaultgrey"
       d="M 7,0.11132812 A 0.38952288,0.38952288 0 0 0 6.6113281,0.5 V 2.2519531 C 5.8170141,2.3856026 5.0743445,2.6934758 4.4179688,3.1601562 L 3.1757812,1.9238281 a 0.38952288,0.38952288 0 0 0 -0.5507812,0 L 1.9238281,2.625 a 0.38952288,0.38952288 0 0 0 0,0.5507812 L 3.1601562,4.4121094 C 2.6921341,5.0694634 2.3856334,5.8156262 2.2519531,6.6113281 H 0.5 A 0.38952288,0.38952288 0 0 0 0.11132812,7 V 8 A 0.38952288,0.38952288 0 0 0 0.5,8.3886719 h 1.7519531 c 0.1336494,0.794314 0.4415226,1.5369838 0.9082031,2.1933591 l -1.2363281,1.242188 a 0.38952288,0.38952288 0 0 0 0,0.550781 L 2.625,13.076172 a 0.38952288,0.38952288 0 0 0 0.5507812,0 l 1.2363282,-1.236328 c 0.6573539,0.468022 1.4035166,0.774523 2.1992187,0.908203 V 14.5 A 0.38952288,0.38952288 0 0 0 7,14.888672 H 8 A 0.38952288,0.38952288 0 0 0 8.3886719,14.5 v -1.751953 c 0.7944604,-0.134599 1.5391878,-0.44224 2.1953121,-0.910156 l 1.240235,1.238281 a 0.38952288,0.38952288 0 0 0 0.550781,0 L 13.076172,12.375 a 0.38952288,0.38952288 0 0 0 0,-0.550781 L 11.839844,10.587891 C 12.307866,9.9305365 12.614367,9.184374 12.748047,8.3886719 H 14.5 A 0.38952288,0.38952288 0 0 0 14.888672,8 V 7 A 0.38952288,0.38952288 0 0 0 14.5,6.6113281 H 12.748047 C 12.613446,5.816869 12.305806,5.0721408 11.837891,4.4160156 l 1.238281,-1.2402344 a 0.38952288,0.38952288 0 0 0 0,-0.5507812 L 12.375,1.9238281 a 0.38952288,0.38952288 0 0 0 -0.550781,0 L 10.587891,3.1601562 C 9.9305364,2.6921342 9.1843738,2.3856334 8.3886719,2.2519531 V 0.5 A 0.38952288,0.38952288 0 0 0 8,0.11132812 Z" />
  </g>
</svg>
