<?xml version="1.0" encoding="UTF-8" standalone="no"?>
<!-- Created with Inkscape (http://www.inkscape.org/) -->

<svg
   width="64"
   height="32"
   id="svg2"
   version="1.0"
   xmlns="http://www.w3.org/2000/svg"
   xmlns:svg="http://www.w3.org/2000/svg"
   xmlns:rdf="http://www.w3.org/1999/02/22-rdf-syntax-ns#"
   xmlns:cc="http://creativecommons.org/ns#"
   xmlns:dc="http://purl.org/dc/elements/1.1/">
  <defs
     id="defs4" />
  <metadata
     id="metadata7">
    <rdf:RDF>
      <cc:Work
         rdf:about="">
        <dc:format>image/svg+xml</dc:format>
        <dc:type
           rdf:resource="http://purl.org/dc/dcmitype/StillImage" />
      </cc:Work>
    </rdf:RDF>
  </metadata>
  <g
     id="layer1"
     style="display:inline"
     transform="translate(-15.5,-17.594481)">
    <path
       id="path10210"
       style="display:inline;fill:none;fill-opacity:1;stroke:#8c8c8c;stroke-width:2;stroke-linecap:square;stroke-miterlimit:4;stroke-dashoffset:0;stroke-opacity:1"
       d="m 28.74997,20.594481 v 0.0625 c 2.19873,3.815169 3.46875,8.220709 3.46875,12.9375 0,4.71679 -1.27002,9.122331 -3.46875,12.9375 v 0.0625 h 3.46875 10 c 9.61071,0 18.00007,-5.2393 22.5,-13 -4.49993,-7.7607 -12.88929,-13 -22.5,-13 h -10 z m -5,0.0625 c 2.19873,3.815169 3.46875,8.220709 3.46875,12.9375 0,4.71679 -1.27002,9.122331 -3.46875,12.9375 m 45,-12.93677 c 0,1.104 -0.896,2 -2,2 -1.104,0 -2,-0.896 -2,-2 0,-1.104 0.896,-2 2,-2 1.104,0 2,0.896 2,2 z m 0,-7.1e-4 h 9.00006 m -60.50006,-6.50002 h 9.00006 m -9.00006,13 h 9.00006" />
  </g>
</svg>
